<svg width="83" height="44" viewBox="0 0 83 44" fill="none" xmlns="http://www.w3.org/2000/svg">
<rect width="83" height="44" rx="8" fill="#E0EDFD"/>
<path d="M25.826 21.904C26.4513 22.072 26.9273 22.3613 27.254 22.772C27.5807 23.1733 27.744 23.6773 27.744 24.284C27.744 25.1427 27.4267 25.81 26.792 26.286C26.1573 26.762 25.238 27 24.034 27H19.386V17.2H23.768C24.8693 17.2 25.728 17.4193 26.344 17.858C26.96 18.2967 27.268 18.9173 27.268 19.72C27.268 20.2333 27.142 20.6767 26.89 21.05C26.6473 21.4233 26.2927 21.708 25.826 21.904ZM21.178 21.386H23.614C24.202 21.386 24.65 21.2693 24.958 21.036C25.266 20.8027 25.42 20.4573 25.42 20C25.42 19.5427 25.266 19.1973 24.958 18.964C24.65 18.7213 24.202 18.6 23.614 18.6H21.178V21.386ZM23.978 25.6C25.266 25.6 25.91 25.1147 25.91 24.144C25.91 23.192 25.266 22.716 23.978 22.716H21.178V25.6H23.978ZM32.9533 27.098C32.1973 27.098 31.516 26.9347 30.9093 26.608C30.3026 26.2813 29.8266 25.8287 29.4813 25.25C29.1453 24.662 28.9773 23.9993 28.9773 23.262C28.9773 22.5247 29.1453 21.8667 29.4813 21.288C29.8266 20.7093 30.3026 20.2567 30.9093 19.93C31.516 19.6033 32.1973 19.44 32.9533 19.44C33.7186 19.44 34.4046 19.6033 35.0113 19.93C35.618 20.2567 36.0893 20.7093 36.4253 21.288C36.7706 21.8667 36.9433 22.5247 36.9433 23.262C36.9433 23.9993 36.7706 24.662 36.4253 25.25C36.0893 25.8287 35.618 26.2813 35.0113 26.608C34.4046 26.9347 33.7186 27.098 32.9533 27.098ZM32.9533 25.6C33.5973 25.6 34.1293 25.3853 34.5493 24.956C34.9693 24.5267 35.1793 23.962 35.1793 23.262C35.1793 22.562 34.9693 21.9973 34.5493 21.568C34.1293 21.1387 33.5973 20.924 32.9533 20.924C32.3093 20.924 31.7773 21.1387 31.3573 21.568C30.9466 21.9973 30.7413 22.562 30.7413 23.262C30.7413 23.962 30.9466 24.5267 31.3573 24.956C31.7773 25.3853 32.3093 25.6 32.9533 25.6ZM38.6721 19.524H40.4221V24.452L44.5521 19.524H46.1481V27H44.3981V22.072L40.2821 27H38.6721V19.524ZM42.2981 18.642C41.5421 18.642 40.9634 18.4693 40.5621 18.124C40.1701 17.7693 39.9694 17.256 39.9601 16.584H41.1221C41.1314 16.92 41.2341 17.186 41.4301 17.382C41.6354 17.578 41.9201 17.676 42.2841 17.676C42.6388 17.676 42.9188 17.578 43.1241 17.382C43.3388 17.186 43.4508 16.92 43.4601 16.584H44.6501C44.6408 17.256 44.4354 17.7693 44.0341 18.124C43.6328 18.4693 43.0541 18.642 42.2981 18.642ZM54.4242 21.008H51.8062V27H50.0562V21.008H47.4242V19.524H54.4242V21.008ZM55.6936 19.524H57.4436V24.452L61.5736 19.524H63.1696V27H61.4196V22.072L57.3036 27H55.6936V19.524Z" fill="#0066CC"/>
</svg>
