<svg width="155" height="24" viewBox="0 0 155 24" fill="none" xmlns="http://www.w3.org/2000/svg">
<g clip-path="url(#clip0_1_738)">
<path d="M3 18H21V16H3V18ZM3 13H21V11H3V13ZM3 6V8H21V6H3Z" fill="#0066CC"/>
</g>
<path d="M45.5133 6.75949C43.2852 6.75949 40.5908 7.06329 39.2436 7.46835V10.962C40.7981 10.557 42.3525 10.1013 44.2179 10.1013C47.0159 10.1013 48.8813 10.7595 48.8813 12.8354V13.3924C47.0159 12.7342 45.4615 12.6329 44.2697 12.6329C41.4198 12.6329 38 13.6962 38 17.1392C38 19.8734 40.1763 22 43.9588 22C46.705 22 48.5186 20.9873 49.3995 20.3797L49.814 21.6962H53.2857V12.7848C53.2857 8.22785 49.9176 6.75949 45.5133 6.75949ZM42.5598 17.2405C42.5598 16.1266 43.4407 15.4684 45.2542 15.4684C46.8087 15.4684 48.0004 15.6709 48.8813 16.0759V17.8481C47.9486 18.3038 46.705 18.8608 45.3578 18.8608C43.4925 18.8608 42.5598 18.2025 42.5598 17.2405ZM63.5452 6.75949C59.2963 6.75949 56.1873 8.02532 56.1873 11.2152C56.1873 13.0886 56.8609 14.7595 60.1771 15.4177L63.4415 16.0759C65.4624 16.481 65.7214 16.8861 65.7214 17.3418C65.7214 18.1519 65.0478 18.557 62.3534 18.557C60.2808 18.557 57.5345 17.8987 56.4982 17.5443V21.0886C57.69 21.4937 60.488 22 62.457 22C68.0013 22 70.074 19.9747 70.074 17.1899C70.074 15.0127 68.8304 13.5949 65.6696 12.9367L62.6643 12.2785C60.8508 11.8734 60.4362 11.8734 60.4362 11.2152C60.4362 10.2532 62.5089 10.1519 63.8561 10.1519C65.4105 10.1519 67.0686 10.4051 69.1413 11.1139V7.67089C67.8459 7.16456 65.9287 6.75949 63.5452 6.75949ZM82.4061 7.06329H77.7427V3.31646H74.012L73.4938 7.06329H70.7994V10.5063H73.3384V16.9367C73.3384 20.7848 75.9291 22 79.0381 22C80.4371 22 81.2662 21.8987 82.4061 21.4937V18.0506C81.6289 18.3038 80.5407 18.4557 79.9708 18.4557C78.1572 18.4557 77.7427 17.5949 77.7427 16.1772V10.5063H82.4061V7.06329ZM99.9717 15.9747V13.9494C99.9717 9.34177 97.3809 6.75949 92.4584 6.75949C88.1577 6.75949 84.1678 9.13924 84.1678 14.2532C84.1678 19.6709 87.6395 22 92.9765 22C95.1528 22 97.4327 21.4937 99.1426 20.9873V17.5949C97.5363 18.1013 95.2046 18.6076 93.0802 18.6076C91.4221 18.6076 88.9867 18.1519 88.6758 15.9747H99.9717ZM88.6758 13.2911C88.9349 11.0633 90.3339 10.1013 92.5102 10.1013C94.3756 10.1013 95.4119 11.3165 95.4119 13.2911H88.6758ZM106.397 7.06329H102.873V21.6962H107.278V12.3291C108.677 11.519 110.49 10.8101 112.874 10.8608V6.75949C110.283 6.81013 108.418 7.67089 106.915 8.68354L106.397 7.06329ZM127.9 21.6962V2H123.496V21.6962H127.9ZM133.652 7.06329C131.838 9.08861 130.232 11.2658 128.211 14.3544C131.113 17.2911 133.03 19.6203 134.429 21.6962H139.818C139.248 20.9367 135.776 16.481 133.082 14.1013C135.051 11.5696 136.761 9.5443 138.937 7.06329H133.652ZM154.948 9.8481V7.06329H140.906V10.5063H149.197L140.699 18.8608V21.6962H155V18.2532H146.399L154.948 9.8481Z" fill="#0066CC"/>
<path d="M116.484 21.9499C115.551 21.9499 114.774 21.6461 114.101 21.0385C113.479 20.4309 113.168 19.6208 113.168 18.7094C113.168 17.7474 113.479 16.9879 114.101 16.4309C114.722 15.8233 115.551 15.5195 116.484 15.5195C117.469 15.5195 118.246 15.8233 118.868 16.4309C119.49 16.9879 119.8 17.7474 119.8 18.7094C119.8 19.6208 119.49 20.4309 118.868 21.0385C118.246 21.6461 117.417 21.9499 116.484 21.9499Z" fill="#F7D117"/>
<defs>
<clipPath id="clip0_1_738">
<rect width="24" height="24" fill="white"/>
</clipPath>
</defs>
</svg>
