<svg width="193" height="48" viewBox="0 0 193 48" fill="none" xmlns="http://www.w3.org/2000/svg">
<g filter="url(#filter0_d_1_749)">
<rect x="2" y="1" width="189" height="44" rx="8" fill="#00BE5A"/>
<path d="M32.052 18.7V28.5H30.26V20.24H25.178V28.5H23.386V18.7H32.052ZM37.9514 28.598C37.1954 28.598 36.514 28.4347 35.9074 28.108C35.3007 27.7813 34.8247 27.3287 34.4794 26.75C34.1434 26.162 33.9754 25.4993 33.9754 24.762C33.9754 24.0247 34.1434 23.3667 34.4794 22.788C34.8247 22.2093 35.3007 21.7567 35.9074 21.43C36.514 21.1033 37.1954 20.94 37.9514 20.94C38.7167 20.94 39.4027 21.1033 40.0094 21.43C40.616 21.7567 41.0874 22.2093 41.4234 22.788C41.7687 23.3667 41.9414 24.0247 41.9414 24.762C41.9414 25.4993 41.7687 26.162 41.4234 26.75C41.0874 27.3287 40.616 27.7813 40.0094 28.108C39.4027 28.4347 38.7167 28.598 37.9514 28.598ZM37.9514 27.1C38.5954 27.1 39.1274 26.8853 39.5474 26.456C39.9674 26.0267 40.1774 25.462 40.1774 24.762C40.1774 24.062 39.9674 23.4973 39.5474 23.068C39.1274 22.6387 38.5954 22.424 37.9514 22.424C37.3074 22.424 36.7754 22.6387 36.3554 23.068C35.9447 23.4973 35.7394 24.062 35.7394 24.762C35.7394 25.462 35.9447 26.0267 36.3554 26.456C36.7754 26.8853 37.3074 27.1 37.9514 27.1ZM51.5681 27.016V30.166H49.9301V28.5H44.1621V30.166H42.5381V27.016H42.8881C43.3641 26.9973 43.6861 26.694 43.8541 26.106C44.0314 25.5087 44.1481 24.6687 44.2041 23.586L44.3021 21.024H50.4621V27.016H51.5681ZM45.8001 23.712C45.7628 24.5707 45.6928 25.2707 45.5901 25.812C45.4874 26.3533 45.3008 26.7547 45.0301 27.016H48.7121V22.508H45.8421L45.8001 23.712ZM55.9171 20.94C57.0184 20.94 57.8584 21.206 58.4371 21.738C59.0251 22.2607 59.3191 23.054 59.3191 24.118V28.5H57.6671V27.59C57.4524 27.9167 57.1444 28.1687 56.7431 28.346C56.3511 28.514 55.8751 28.598 55.3151 28.598C54.7551 28.598 54.2651 28.5047 53.8451 28.318C53.4251 28.122 53.0984 27.856 52.8651 27.52C52.6411 27.1747 52.5291 26.7873 52.5291 26.358C52.5291 25.686 52.7764 25.1493 53.2711 24.748C53.7751 24.3373 54.5637 24.132 55.6371 24.132H57.5691V24.02C57.5691 23.4973 57.4104 23.096 57.0931 22.816C56.7851 22.536 56.3231 22.396 55.7071 22.396C55.2871 22.396 54.8717 22.4613 54.4611 22.592C54.0597 22.7227 53.7191 22.9047 53.4391 23.138L52.7531 21.864C53.1451 21.5653 53.6164 21.3367 54.1671 21.178C54.7177 21.0193 55.3011 20.94 55.9171 20.94ZM55.6791 27.324C56.1177 27.324 56.5051 27.226 56.8411 27.03C57.1864 26.8247 57.4291 26.5353 57.5691 26.162V25.294H55.7631C54.7551 25.294 54.2511 25.6253 54.2511 26.288C54.2511 26.6053 54.3771 26.8573 54.6291 27.044C54.8811 27.2307 55.2311 27.324 55.6791 27.324ZM67.4066 22.508H64.7886V28.5H63.0386V22.508H60.4066V21.024H67.4066V22.508ZM72.428 23.488C73.38 23.488 74.108 23.7027 74.612 24.132C75.1253 24.5613 75.382 25.168 75.382 25.952C75.382 26.7733 75.102 27.408 74.542 27.856C73.982 28.304 73.1933 28.5233 72.176 28.514L68.676 28.5V21.024H70.426V23.474L72.428 23.488ZM72.022 27.226C72.5353 27.2353 72.9273 27.128 73.198 26.904C73.4687 26.68 73.604 26.3533 73.604 25.924C73.604 25.504 73.4733 25.196 73.212 25C72.9507 24.804 72.554 24.7013 72.022 24.692L70.426 24.678V27.212L72.022 27.226ZM84.1213 28.598C83.3653 28.598 82.6839 28.4347 82.0773 28.108C81.4706 27.7813 80.9946 27.3287 80.6493 26.75C80.3133 26.162 80.1453 25.4993 80.1453 24.762C80.1453 24.0247 80.3133 23.3667 80.6493 22.788C80.9946 22.2093 81.4706 21.7567 82.0773 21.43C82.6839 21.1033 83.3653 20.94 84.1213 20.94C84.8866 20.94 85.5726 21.1033 86.1793 21.43C86.7859 21.7567 87.2573 22.2093 87.5933 22.788C87.9386 23.3667 88.1113 24.0247 88.1113 24.762C88.1113 25.4993 87.9386 26.162 87.5933 26.75C87.2573 27.3287 86.7859 27.7813 86.1793 28.108C85.5726 28.4347 84.8866 28.598 84.1213 28.598ZM84.1213 27.1C84.7653 27.1 85.2973 26.8853 85.7173 26.456C86.1373 26.0267 86.3473 25.462 86.3473 24.762C86.3473 24.062 86.1373 23.4973 85.7173 23.068C85.2973 22.6387 84.7653 22.424 84.1213 22.424C83.4773 22.424 82.9453 22.6387 82.5253 23.068C82.1146 23.4973 81.9093 24.062 81.9093 24.762C81.9093 25.462 82.1146 26.0267 82.5253 26.456C82.9453 26.8853 83.4773 27.1 84.1213 27.1ZM93.8861 21.388C94.5954 21.388 95.2207 21.542 95.7621 21.85C96.3034 22.1487 96.7234 22.5687 97.0221 23.11C97.3301 23.6513 97.4841 24.272 97.4841 24.972C97.4841 25.6907 97.3161 26.33 96.9801 26.89C96.6441 27.4407 96.1727 27.87 95.5661 28.178C94.9594 28.486 94.2687 28.64 93.4941 28.64C92.1967 28.64 91.1934 28.2107 90.4841 27.352C89.7747 26.4933 89.4201 25.2567 89.4201 23.642C89.4201 22.1393 89.7421 20.9493 90.3861 20.072C91.0301 19.1947 92.0147 18.616 93.3401 18.336L96.8121 17.594L97.0641 19.162L93.9141 19.806C93.0087 19.9927 92.3321 20.31 91.8841 20.758C91.4361 21.206 91.1747 21.836 91.1001 22.648C91.4361 22.2467 91.8421 21.9387 92.3181 21.724C92.7941 21.5 93.3167 21.388 93.8861 21.388ZM93.5361 27.226C94.1801 27.226 94.6981 27.0207 95.0901 26.61C95.4914 26.19 95.6921 25.658 95.6921 25.014C95.6921 24.37 95.4914 23.852 95.0901 23.46C94.6981 23.068 94.1801 22.872 93.5361 22.872C92.8827 22.872 92.3554 23.068 91.9541 23.46C91.5527 23.852 91.3521 24.37 91.3521 25.014C91.3521 25.6673 91.5527 26.1993 91.9541 26.61C92.3647 27.0207 92.8921 27.226 93.5361 27.226ZM103.693 23.474C104.626 23.474 105.345 23.6933 105.849 24.132C106.353 24.5613 106.605 25.1633 106.605 25.938C106.605 26.75 106.325 27.38 105.765 27.828C105.205 28.276 104.421 28.5 103.413 28.5H100.039V22.508H97.8265V21.024H101.789V23.474H103.693ZM103.329 27.212C103.823 27.212 104.197 27.1 104.449 26.876C104.701 26.652 104.827 26.3253 104.827 25.896C104.827 25.0933 104.327 24.692 103.329 24.692H101.789V27.212H103.329ZM113.928 21.024V28.5H112.36V26.246H110.386L108.86 28.5H106.984L108.748 26.008C108.206 25.8213 107.791 25.5367 107.502 25.154C107.222 24.762 107.082 24.2813 107.082 23.712C107.082 22.8533 107.385 22.1907 107.992 21.724C108.598 21.2573 109.434 21.024 110.498 21.024H113.928ZM110.553 22.494C109.424 22.494 108.86 22.9187 108.86 23.768C108.86 24.608 109.406 25.028 110.498 25.028H112.36V22.494H110.553ZM121.699 24.608C122.623 24.888 123.085 25.4853 123.085 26.4C123.085 27.072 122.833 27.59 122.329 27.954C121.825 28.318 121.079 28.5 120.089 28.5H116.281V21.024H119.935C120.85 21.024 121.564 21.192 122.077 21.528C122.591 21.864 122.847 22.34 122.847 22.956C122.847 23.3387 122.745 23.67 122.539 23.95C122.343 24.23 122.063 24.4493 121.699 24.608ZM117.947 24.146H119.781C120.687 24.146 121.139 23.8333 121.139 23.208C121.139 22.6013 120.687 22.298 119.781 22.298H117.947V24.146ZM119.949 27.226C120.911 27.226 121.391 26.9133 121.391 26.288C121.391 25.9613 121.279 25.7187 121.055 25.56C120.831 25.392 120.481 25.308 120.005 25.308H117.947V27.226H119.949ZM131.725 21.024V28.5H129.975V22.508H127.175L127.105 23.992C127.059 24.9813 126.965 25.812 126.825 26.484C126.695 27.1467 126.466 27.674 126.139 28.066C125.822 28.4487 125.383 28.64 124.823 28.64C124.562 28.64 124.24 28.5887 123.857 28.486L123.941 27.016C124.072 27.044 124.184 27.058 124.277 27.058C124.632 27.058 124.898 26.918 125.075 26.638C125.253 26.3487 125.365 26.008 125.411 25.616C125.467 25.2147 125.514 24.6453 125.551 23.908L125.677 21.024H131.725ZM141.082 24.804C141.082 24.9253 141.073 25.098 141.054 25.322H135.188C135.291 25.8727 135.557 26.3113 135.986 26.638C136.425 26.9553 136.966 27.114 137.61 27.114C138.432 27.114 139.108 26.8433 139.64 26.302L140.578 27.38C140.242 27.7813 139.818 28.0847 139.304 28.29C138.791 28.4953 138.212 28.598 137.568 28.598C136.747 28.598 136.024 28.4347 135.398 28.108C134.773 27.7813 134.288 27.3287 133.942 26.75C133.606 26.162 133.438 25.4993 133.438 24.762C133.438 24.034 133.602 23.3807 133.928 22.802C134.264 22.214 134.726 21.7567 135.314 21.43C135.902 21.1033 136.565 20.94 137.302 20.94C138.03 20.94 138.679 21.1033 139.248 21.43C139.827 21.7473 140.275 22.2 140.592 22.788C140.919 23.3667 141.082 24.0387 141.082 24.804ZM137.302 22.34C136.742 22.34 136.266 22.508 135.874 22.844C135.492 23.1707 135.258 23.6093 135.174 24.16H139.416C139.342 23.6187 139.113 23.18 138.73 22.844C138.348 22.508 137.872 22.34 137.302 22.34ZM142.996 21.024H144.746V24.062H148.512V21.024H150.262V28.5H148.512V25.546H144.746V28.5H142.996V21.024ZM152.608 21.024H154.358V25.952L158.488 21.024H160.084V28.5H158.334V23.572L154.218 28.5H152.608V21.024ZM169.438 24.804C169.438 24.9253 169.428 25.098 169.41 25.322H163.544C163.646 25.8727 163.912 26.3113 164.342 26.638C164.78 26.9553 165.322 27.114 165.966 27.114C166.787 27.114 167.464 26.8433 167.996 26.302L168.934 27.38C168.598 27.7813 168.173 28.0847 167.66 28.29C167.146 28.4953 166.568 28.598 165.924 28.598C165.102 28.598 164.379 28.4347 163.754 28.108C163.128 27.7813 162.643 27.3287 162.298 26.75C161.962 26.162 161.794 25.4993 161.794 24.762C161.794 24.034 161.957 23.3807 162.284 22.802C162.62 22.214 163.082 21.7567 163.67 21.43C164.258 21.1033 164.92 20.94 165.658 20.94C166.386 20.94 167.034 21.1033 167.604 21.43C168.182 21.7473 168.63 22.2 168.948 22.788C169.274 23.3667 169.438 24.0387 169.438 24.804ZM165.658 22.34C165.098 22.34 164.622 22.508 164.23 22.844C163.847 23.1707 163.614 23.6093 163.53 24.16H167.772C167.697 23.6187 167.468 23.18 167.086 22.844C166.703 22.508 166.227 22.34 165.658 22.34Z" fill="white"/>
</g>
<defs>
<filter id="filter0_d_1_749" x="0" y="0" width="193" height="48" filterUnits="userSpaceOnUse" color-interpolation-filters="sRGB">
<feFlood flood-opacity="0" result="BackgroundImageFix"/>
<feColorMatrix in="SourceAlpha" type="matrix" values="0 0 0 0 0 0 0 0 0 0 0 0 0 0 0 0 0 0 127 0" result="hardAlpha"/>
<feOffset dy="1"/>
<feGaussianBlur stdDeviation="1"/>
<feColorMatrix type="matrix" values="0 0 0 0 0.0627451 0 0 0 0 0.0941176 0 0 0 0 0.156863 0 0 0 0.05 0"/>
<feBlend mode="normal" in2="BackgroundImageFix" result="effect1_dropShadow_1_749"/>
<feBlend mode="normal" in="SourceGraphic" in2="effect1_dropShadow_1_749" result="shape"/>
</filter>
</defs>
</svg>
