<svg width="55" height="44" viewBox="0 0 55 44" fill="none" xmlns="http://www.w3.org/2000/svg">
<path d="M9.404 17.2C10.2533 17.2 10.9907 17.34 11.616 17.62C12.2507 17.9 12.736 18.3013 13.072 18.824C13.408 19.3467 13.576 19.9673 13.576 20.686C13.576 21.3953 13.408 22.016 13.072 22.548C12.736 23.0707 12.2507 23.472 11.616 23.752C10.9907 24.032 10.2533 24.172 9.404 24.172H7.192V27H5.372V17.2H9.404ZM9.32 22.632C10.1133 22.632 10.7153 22.464 11.126 22.128C11.5367 21.792 11.742 21.3113 11.742 20.686C11.742 20.0607 11.5367 19.58 11.126 19.244C10.7153 18.908 10.1133 18.74 9.32 18.74H7.192V22.632H9.32ZM22.2261 19.524L18.7261 27.602C18.3995 28.414 18.0028 28.9833 17.5361 29.31C17.0695 29.646 16.5048 29.814 15.8421 29.814C15.4688 29.814 15.1001 29.7533 14.7361 29.632C14.3721 29.5107 14.0735 29.3427 13.8401 29.128L14.5401 27.84C14.7081 27.9987 14.9041 28.1247 15.1281 28.218C15.3615 28.3113 15.5948 28.358 15.8281 28.358C16.1361 28.358 16.3881 28.2787 16.5841 28.12C16.7895 27.9613 16.9761 27.6953 17.1441 27.322L17.2701 27.028L14.0081 19.524H15.8281L18.1801 25.054L20.5461 19.524H22.2261ZM26.6385 27.098C25.8639 27.098 25.1685 26.9347 24.5525 26.608C23.9365 26.2813 23.4559 25.8287 23.1105 25.25C22.7652 24.662 22.5925 23.9993 22.5925 23.262C22.5925 22.5247 22.7652 21.8667 23.1105 21.288C23.4559 20.7093 23.9319 20.2567 24.5385 19.93C25.1545 19.6033 25.8545 19.44 26.6385 19.44C27.3759 19.44 28.0199 19.5893 28.5705 19.888C29.1305 20.1867 29.5505 20.616 29.8305 21.176L28.4865 21.96C28.2719 21.6147 28.0012 21.358 27.6745 21.19C27.3572 21.0127 27.0072 20.924 26.6245 20.924C25.9712 20.924 25.4299 21.1387 25.0005 21.568C24.5712 21.988 24.3565 22.5527 24.3565 23.262C24.3565 23.9713 24.5665 24.5407 24.9865 24.97C25.4159 25.39 25.9619 25.6 26.6245 25.6C27.0072 25.6 27.3572 25.516 27.6745 25.348C28.0012 25.1707 28.2719 24.9093 28.4865 24.564L29.8305 25.348C29.5412 25.908 29.1165 26.342 28.5565 26.65C28.0059 26.9487 27.3665 27.098 26.6385 27.098Z" fill="#0066CC"/>
<g clip-path="url(#clip0_1_747)">
<path d="M39.94 19.7266L43 22.7799L46.06 19.7266L47 20.6666L43 24.6666L39 20.6666L39.94 19.7266Z" fill="#0066CC"/>
</g>
<defs>
<clipPath id="clip0_1_747">
<rect width="16" height="16" fill="white" transform="translate(35 14)"/>
</clipPath>
</defs>
</svg>
